<?xml version="1.0" encoding="UTF-8"?>
<!DOCTYPE svg PUBLIC "-//W3C//DTD SVG 1.0//EN" "http://www.w3.org/TR/2001/REC-SVG-20010904/DTD/svg10.dtd">
<!-- Creator: CorelDRAW X7 -->
<svg xmlns="http://www.w3.org/2000/svg" xml:space="preserve" width="199px" height="56px" version="1.0" shape-rendering="geometricPrecision" text-rendering="geometricPrecision" image-rendering="optimizeQuality" fill-rule="evenodd" clip-rule="evenodd"
viewBox="0 0 198 55"
 xmlns:xlink="http://www.w3.org/1999/xlink">
 <g id="Capa_x0020_1">
  <metadata id="CorelCorpID_0Corel-Layer"/>
  <path fill="#D12421" d="M61 0c10,0 7,9 2,18 4,-14 -5,-15 -17,-9l-3 10 6 0 -3 8 -6 0 -3 10c-2,4 0,5 4,4l-1 7c-5,1 -9,1 -13,1l-14 0 7 -20c-10,10 -16,20 -10,24 2,1 6,0 10,-1 -24,9 -25,-3 -11,-19 4,-5 9,-10 14,-14l3 -7 6 0c11,-7 21,-12 29,-12zm-22 14c-4,2 -9,6 -13,9l-1 4 4 0c-1,4 -10,20 -2,22l12 -35z"/>
  <polygon fill="#00407A" points="190,29 198,24 190,49 183,49 "/>
  <path fill="#00407A" d="M175 44l7 0c-1,2 -2,2 -4,4 -2,1 -5,1 -8,1 -2,0 -5,0 -6,-1 -3,-3 -1,-11 2,-13 1,-1 3,-2 5,-3 2,-1 4,-2 6,-2 7,0 9,4 7,12l-15 -1 0 1c0,1 0,2 1,2 0,1 0,1 1,1 0,0 0,0 1,0 1,0 2,0 3,-1zm-4 -6l6 0c1,0 1,-2 1,-2 0,0 -1,0 -1,-1 0,0 -1,-1 -2,-1 -1,0 -1,1 -2,1 -1,1 -2,2 -2,3z"/>
  <path fill="#00407A" d="M130 36c1,-4 5,-6 12,-6 3,0 5,1 6,1 2,2 1,5 1,6 -1,4 -4,10 -3,12l-7 0c0,-1 0,-2 0,-2 -2,1 -6,2 -9,2 -1,0 -2,0 -4,-1 0,-1 -1,-2 0,-3l0 0 0 -1c1,-2 1,-3 3,-4 1,-1 2,-1 3,-1l2 -1 3 0c2,0 3,-1 3,-1 1,0 2,-1 2,-1 0,-1 -1,-2 -2,-2 -2,0 -3,1 -3,2l-7 0zm10 5c-1,0 -2,0 -3,1l-1 0c-1,0 -1,0 -1,0 -1,1 -1,1 -2,2 0,1 1,1 2,1 1,0 2,0 3,-1 1,-1 1,-2 2,-3z"/>
  <path fill="#00407A" d="M98 31l7 0 -1 2c1,-1 2,-1 3,-2 0,0 1,0 1,0 0,0 0,0 1,-1 0,0 1,0 2,0 2,0 4,1 4,3 3,-2 5,-3 8,-3 2,0 3,1 4,1 1,1 1,3 0,4 0,1 0,2 0,3l-4 11 -7 0 3 -9c0,-1 0,-2 1,-2 0,-1 0,-1 -1,-2 0,0 0,0 -1,0 -1,0 -1,0 -2,0 -1,1 -1,2 -2,4l-3 9 -7 0 3 -10 0 -1c1,-1 0,-2 -1,-2 -1,0 -2,0 -2,1 -1,0 -1,1 -2,3l-3 9 -7 0 6 -18z"/>
  <path fill="#00407A" d="M83 31l12 -7 -3 7 4 0 -2 5 -3 0 -2 6 -1 1c0,1 0,1 1,1 0,0 0,0 1,0 0,0 1,0 1,0l-1 5c-3,0 -5,1 -9,-1 0,0 -1,-1 0,-2 0,-1 0,-2 0,-3l3 -7 -3 0 2 -5z"/>
  <path fill="#00407A" d="M152 31l11 -7 -2 7 4 0 -2 5 -4 0 -2 6 0 1c0,1 0,1 0,1 1,0 1,0 2,0 0,0 1,0 1,0l-1 5c-3,0 -6,1 -9,-1 -1,0 -1,-1 -1,-2 0,-1 1,-2 1,-3l3 -7 -3 0 2 -5z"/>
  <polygon fill="#00407A" points="74,31 82,31 75,49 68,49 "/>
  <path fill="#00407A" d="M65 35c0,-3 -5,-5 -8,1 -6,10 3,11 6,4l5 2c-3,5 -7,7 -12,7 -3,0 -5,-1 -6,-2 -2,-2 -2,-4 -2,-6l1 -1 0 -1c1,-3 3,-6 5,-8 2,-2 5,-3 9,-3 4,-1 8,1 8,6l-6 1z"/>
  <polygon fill="#00407A" points="76,25 84,25 82,30 75,30 "/>
  <path fill="#EF7FA3" d="M38 34c-2,0 -4,-1 -6,-1l7 -19c-4,2 -9,6 -13,9l-1 4 4 0c0,1 -1,2 -2,4 -4,-2 -8,-3 -11,-5 2,-3 5,-5 7,-7l3 -7 6 0c11,-7 21,-12 29,-12 10,0 7,9 2,18 4,-14 -5,-15 -17,-9l-3 10 6 0 -3 8 -6 0 -2 7z"/>
  <g id="_776847744">
   <path fill="#4C79A2" d="M194 37c-2,-1 -5,-1 -7,-1l3 -7 8 -5 -4 13z"/>
   <path fill="#4C79A2" d="M185 36c-3,-1 -5,-1 -8,-1 0,0 -1,-1 -2,-1 0,0 -1,0 -2,1 -2,0 -4,0 -7,-1 1,-1 3,-2 5,-2 2,-1 4,-2 6,-2 5,0 7,2 8,6z"/>
   <path fill="#4C79A2" d="M149 34c-3,0 -5,1 -8,1 0,0 -1,-1 -1,-1 -1,0 -1,1 -2,1 -2,0 -5,0 -8,0 2,-3 6,-5 12,-5 3,0 5,1 6,1 1,1 1,2 1,3z"/>
   <path fill="#4C79A2" d="M127 35c-3,1 -5,1 -8,1 0,0 -1,0 -1,0 -1,0 -1,0 -2,0 -3,1 -5,1 -8,1 -1,-1 -1,-1 -2,-1 -1,0 -2,0 -2,1 0,0 -1,0 -1,0 -2,1 -5,1 -7,1l2 -7 7 0 -1 2c1,-1 2,-1 3,-2 0,0 1,0 1,0 0,0 0,0 1,-1 0,0 1,0 2,0 2,0 4,1 4,3 3,-2 5,-3 8,-3 2,0 3,1 4,1 1,1 1,3 0,4z"/>
   <path fill="#4C79A2" d="M90 38c-2,0 -5,0 -7,0l1 -2 -3 0 2 -5 12 -7 -3 7 4 0 -2 5 -3 0 -1 2z"/>
   <path fill="#4C79A2" d="M164 34c-5,0 -9,0 -13,0l1 -3 11 -7 -2 7 4 0 -1 3z"/>
   <path fill="#4C79A2" d="M79 38c-2,0 -5,0 -7,0l2 -7 8 0 -3 7z"/>
   <path fill="#4C79A2" d="M56 37c-2,0 -4,0 -6,-1 1,-2 2,-4 4,-5 2,-2 5,-3 9,-3 4,-1 8,1 8,6l-6 1c0,-3 -5,-5 -8,1 -1,0 -1,1 -1,1z"/>
   <polygon fill="#4C79A2" points="76,25 84,25 82,30 75,30 "/>
  </g>
 </g>
</svg>
